<?xml version="1.0" encoding="UTF-8" standalone="no"?>
<svg
   xmlns:dc="http://purl.org/dc/elements/1.1/"
   xmlns:cc="http://creativecommons.org/ns#"
   xmlns:rdf="http://www.w3.org/1999/02/22-rdf-syntax-ns#"
   xmlns:svg="http://www.w3.org/2000/svg"
   xmlns="http://www.w3.org/2000/svg"
   xmlns:sodipodi="http://sodipodi.sourceforge.net/DTD/sodipodi-0.dtd"
   xmlns:inkscape="http://www.inkscape.org/namespaces/inkscape"
   viewBox="0 0 1333 1333"
   id="vector"
   version="1.1"
   sodipodi:docname="icon.svg"
   inkscape:version="1.0 (4035a4fb49, 2020-05-01)">
  <metadata
     id="metadata64">
    <rdf:RDF>
      <cc:Work
         rdf:about="">
        <dc:format>image/svg+xml</dc:format>
        <dc:type
           rdf:resource="http://purl.org/dc/dcmitype/StillImage" />
        <dc:title />
      </cc:Work>
    </rdf:RDF>
  </metadata>
  <defs
     id="defs62">
    <filter
       id="filter978"
       inkscape:label="Drop Shadow"
       style="color-interpolation-filters:sRGB;">
      <feFlood
         id="feFlood968"
         result="flood"
         flood-color="rgb(0,0,0)"
         flood-opacity="0.498039" />
      <feComposite
         id="feComposite970"
         result="composite1"
         operator="in"
         in2="SourceGraphic"
         in="flood" />
      <feGaussianBlur
         id="feGaussianBlur972"
         result="blur"
         stdDeviation="17.8531"
         in="composite1" />
      <feOffset
         id="feOffset974"
         result="offset"
         dy="6"
         dx="6" />
      <feComposite
         id="feComposite976"
         result="composite2"
         operator="over"
         in2="offset"
         in="SourceGraphic" />
    </filter>
  </defs>
  <sodipodi:namedview
     inkscape:document-rotation="0"
     pagecolor="#ffffff"
     bordercolor="#666666"
     borderopacity="1"
     objecttolerance="10"
     gridtolerance="10"
     guidetolerance="10"
     inkscape:pageopacity="0"
     inkscape:pageshadow="2"
     inkscape:window-width="1920"
     inkscape:window-height="1017"
     id="namedview60"
     showgrid="false"
     inkscape:zoom="0.61815454"
     inkscape:cx="1305.5759"
     inkscape:cy="673.19884"
     inkscape:window-x="0"
     inkscape:window-y="34"
     inkscape:window-maximized="1"
     inkscape:current-layer="vector"
     inkscape:snap-bbox="true"
     inkscape:snap-bbox-midpoints="true"
     inkscape:object-paths="true"
     inkscape:bbox-nodes="true" />
  <path
     id="path66"
     style="fill:#26a599;fill-opacity:1;stroke-width:0.916063;filter:url(#filter978)"
     inkscape:label="circle"
     d="m 666.90354,171.66678 c -54.36329,-0.0377 -108.70774,8.97702 -160.10412,26.53923 -51.01341,17.39517 -99.10388,43.19406 -141.74899,75.98983 -43.15901,33.14804 -80.72993,73.44106 -110.74837,118.68097 -30.20525,45.45955 -52.77094,95.90195 -66.53535,148.61734 -14.13471,53.98859 -19.0293,110.35126 -14.41921,165.95271 4.59625,55.87572 18.78631,110.95567 41.80941,162.14244 22.58933,50.31784 53.70139,96.85363 91.67319,137.0231 36.87307,39.0563 80.20764,72.0821 127.7662,97.3038 47.41527,25.1806 99.0048,42.5821 152.06016,51.2499 53.26646,8.7395 107.99757,8.6657 161.23883,-0.2145 54.46153,-9.0436 107.34684,-27.2974 155.73496,-53.7064 49.23035,-26.8252 93.77524,-62.0667 131.15425,-103.67885 36.5958,-40.68662 66.3173,-87.44097 87.6146,-137.72345 21.9897,-51.82378 35.0185,-107.37349 38.3715,-163.51381 3.4043,-56.25387 -2.9131,-113.06911 -18.5936,-167.22348 -15.4449,-53.46776 -40.0136,-104.33025 -72.3918,-149.73028 -32.2279,-45.26007 -72.19905,-85.07492 -117.71896,-117.17073 -45.4594,-32.09935 -96.43651,-56.47094 -150.06848,-71.68891 -43.85743,-12.4724 -89.46542,-18.83944 -135.09422,-18.84891 z" />
  <path
     style="fill-opacity:0.13;fill:#000000"
     d="m 684.76758,413.67773 -6.67969,185.67774 -88.62305,-88.62305 -20.86914,172.54297 c -27.069,-27.293 -53.05384,-53.65931 -75.83984,-77.07031 l -29.9668,97.60742 -65.91797,-65.91797 -36.41992,56.58399 228.07031,228.0664 217.81836,217.82028 c 33.74509,-9.9332 66.42131,-23.4461 97.26758,-40.2812 49.23039,-26.8252 93.77518,-62.0676 131.15428,-103.6797 36.5958,-40.68657 66.316,-87.44019 87.6133,-137.72266 14.0863,-33.19749 24.4905,-67.9257 31.0352,-103.35742 l -167.25004,-167.25 -108.44532,-108.28711 -1.56445,125.27734 z"
     id="path" />
  <path
     fill="#000000"
     d="m 674.66666,410.66666 h -16 c -4.242,0 -8.314,1.687 -11.314,4.686 -2.999,3 -4.686,7.072 -4.686,11.314 v 480 c 0,4.242 1.687,8.314 4.686,11.314 3,2.999 7.072,4.686 11.314,4.686 h 16 c 4.242,0 8.314,-1.687 11.314,-4.686 2.999,-3 4.686,-7.072 4.686,-11.314 v -480 c 0,-4.242 -1.687,-8.314 -4.686,-11.314 -3,-2.999 -7.072,-4.686 -11.314,-4.686 z m -96,96 h -16 c -4.242,0 -8.314,1.687 -11.314,4.686 -2.999,3 -4.686,7.072 -4.686,11.314 v 288 c 0,4.242 1.687,8.314 4.686,11.314 3,2.999 7.072,4.686 11.314,4.686 h 16 c 4.242,0 8.314,-1.687 11.314,-4.686 2.999,-3 4.686,-7.072 4.686,-11.314 v -288 c 0,-4.242 -1.687,-8.314 -4.686,-11.314 -3,-2.999 -7.072,-4.686 -11.314,-4.686 z m 192,32 h -16 c -4.242,0 -8.314,1.687 -11.314,4.686 -2.999,3 -4.686,7.072 -4.686,11.314 v 224 c 0,4.242 1.687,8.314 4.686,11.314 3,2.999 7.072,4.686 11.314,4.686 h 16 c 4.242,0 8.314,-1.687 11.314,-4.686 2.999,-3 4.686,-7.072 4.686,-11.314 v -224 c 0,-4.242 -1.687,-8.314 -4.686,-11.314 -3,-2.999 -7.072,-4.686 -11.314,-4.686 z m 96,-64 h -16 c -4.242,0 -8.314,1.687 -11.314,4.686 -2.999,3 -4.686,7.072 -4.686,11.314 v 352 c 0,4.242 1.687,8.314 4.686,11.314 3,2.999 7.072,4.686 11.314,4.686 h 16 c 4.242,0 8.314,-1.687 11.314,-4.686 2.999,-3 4.686,-7.072 4.686,-11.314 v -352 c 0,-4.242 -1.687,-8.314 -4.686,-11.314 -3,-2.999 -7.072,-4.686 -11.314,-4.686 z m -384,128 h -16 c -4.242,0 -8.314,1.687 -11.314,4.686 -2.999,3 -4.686,7.072 -4.686,11.314 v 96 c 0,4.242 1.687,8.314 4.686,11.314 3,2.999 7.072,4.686 11.314,4.686 h 16 c 4.242,0 8.314,-1.687 11.314,-4.686 2.999,-3 4.686,-7.072 4.686,-11.314 v -96 c 0,-4.242 -1.687,-8.314 -4.686,-11.314 -3,-2.999 -7.072,-4.686 -11.314,-4.686 z m -96,32 h -16 c -4.242,0 -8.314,1.687 -11.314,4.686 -2.999,3 -4.686,7.072 -4.686,11.314 v 32 c 0,4.242 1.687,8.314 4.686,11.314 3,2.999 7.072,4.686 11.314,4.686 h 16 c 4.242,0 8.314,-1.687 11.314,-4.686 2.999,-3 4.686,-7.072 4.686,-11.314 v -32 c 0,-4.242 -1.687,-8.314 -4.686,-11.314 -3,-2.999 -7.072,-4.686 -11.314,-4.686 z m 576,0 h -16 c -4.242,0 -8.314,1.687 -11.314,4.686 -2.999,3 -4.686,7.072 -4.686,11.314 v 32 c 0,4.242 1.687,8.314 4.686,11.314 3,2.999 7.072,4.686 11.314,4.686 h 16 c 4.242,0 8.314,-1.687 11.314,-4.686 2.999,-3 4.686,-7.072 4.686,-11.314 v -32 c 0,-4.242 -1.687,-8.314 -4.686,-11.314 -3,-2.999 -7.072,-4.686 -11.314,-4.686 z"
     id="path_1"
     inkscape:label="bars" />
  <rect
     inkscape:export-ydpi="40.959999"
     inkscape:export-xdpi="40.959999"
     y="66.5"
     x="66.5"
     height="1200"
     width="1200"
     id="rect834"
     style="fill:#000000;fill-opacity:0;stroke-width:1.01455" />
</svg>
